<svg xmlns="http://www.w3.org/2000/svg" width="32" height="32" viewBox="0 0 32 32" fill="none">
  <defs>
    <linearGradient id="leafGrad" x1="4" y1="4" x2="28" y2="28" gradientUnits="userSpaceOnUse">
      <stop offset="0%" stop-color="#7DAE6E"/>
      <stop offset="100%" stop-color="#5A824E"/>
    </linearGradient>
    <linearGradient id="veinGrad" x1="16" y1="8" x2="16" y2="28" gradientUnits="userSpaceOnUse">
      <stop offset="0%" stop-color="#FBF8F2" stop-opacity="0.6"/>
      <stop offset="100%" stop-color="#FBF8F2" stop-opacity="0.25"/>
    </linearGradient>
  </defs>
  <!-- Leaf shape -->
  <path d="M16 2C16 2 6 6 4 16C2 26 12 30 16 30C20 30 30 26 28 16C26 6 16 2 16 2Z" fill="url(#leafGrad)"/>
  <!-- Central vein -->
  <path d="M16 6V26" stroke="url(#veinGrad)" stroke-width="1.5" stroke-linecap="round"/>
  <!-- Side veins -->
  <path d="M16 12L10 9" stroke="url(#veinGrad)" stroke-width="1" stroke-linecap="round"/>
  <path d="M16 12L22 9" stroke="url(#veinGrad)" stroke-width="1" stroke-linecap="round"/>
  <path d="M16 16L9 14" stroke="url(#veinGrad)" stroke-width="1" stroke-linecap="round"/>
  <path d="M16 16L23 14" stroke="url(#veinGrad)" stroke-width="1" stroke-linecap="round"/>
  <path d="M16 20L10 19" stroke="url(#veinGrad)" stroke-width="1" stroke-linecap="round"/>
  <path d="M16 20L22 19" stroke="url(#veinGrad)" stroke-width="1" stroke-linecap="round"/>
  <path d="M16 24L12 23.5" stroke="url(#veinGrad)" stroke-width="1" stroke-linecap="round"/>
  <path d="M16 24L20 23.5" stroke="url(#veinGrad)" stroke-width="1" stroke-linecap="round"/>
</svg>